<svg xmlns="http://www.w3.org/2000/svg" id="prefigure_two_triangles-figure" width="510" height="410" viewBox="0 0 510 410">
  <defs>
    <clipPath id="prefigure_two_triangles-__clipPath-0">
      <rect x="5.0" y="5.0" width="500.0" height="400.0"/>
    </clipPath>
    <clipPath id="prefigure_two_triangles-__clipPath-1">
      <rect x="5.0" y="5.0" width="500.0" height="400.0"/>
    </clipPath>
    <marker id="prefigure_two_triangles-arrow-head-end-2_None_24_60-black" markerWidth="9.0" markerHeight="8.0" markerUnits="userSpaceOnUse" orient="auto-start-reverse" refX="6.5" refY="4.0">
      <path d="M 9.0 4.0L 0.0 8.0L 1.7 5.0L 1.7 3.0L 0.0 0.0Z" fill="black" stroke="none"/>
    </marker>
    <marker id="prefigure_two_triangles-arrow-head-end-2_None_24_60-black-outline" markerWidth="13.0" markerHeight="12.0" markerUnits="userSpaceOnUse" orient="auto-start-reverse" refX="8.5" refY="6.0">
      <path d="M 11.8 7.8 L 2.8 11.8 A 2 2 0 0 1 0.0 10.0 L 0.0 2.0 A 2 2 0 0 1 2.8 0.2 L 11.8 4.2 A 2 2 0 0 1 11.8 7.8 Z" fill="white" stroke="none"/>
    </marker>
    <marker id="prefigure_two_triangles-arrow-head-end-1_None_24_60-black" markerWidth="4.5" markerHeight="4.0" markerUnits="userSpaceOnUse" orient="auto-start-reverse" refX="3.3" refY="2.0">
      <path d="M 4.5 2.0L 0.0 4.0L 0.9 2.5L 0.9 1.5L 0.0 0.0Z" fill="black" stroke="none"/>
    </marker>
    <marker id="prefigure_two_triangles-arrow-head-end-1_None_24_60-black-outline" markerWidth="8.5" markerHeight="8.0" markerUnits="userSpaceOnUse" orient="auto-start-reverse" refX="5.3" refY="4.0">
      <path d="M 7.3 5.8 L 2.8 7.8 A 2 2 0 0 1 0.0 6.0 L 0.0 2.0 A 2 2 0 0 1 2.8 0.2 L 7.3 2.2 A 2 2 0 0 1 7.3 5.8 Z" fill="white" stroke="none"/>
    </marker>
  </defs>
  <line id="prefigure_two_triangles-__line-0" x1="201.0" y1="233.0" x2="201.0" y2="305.0" stroke="black" stroke-width="2" fill="none"/>
  <line id="prefigure_two_triangles-__line-1" x1="105.0" y1="305.0" x2="75.0" y2="265.0" stroke="black" stroke-width="1" fill="none"/>
  <line id="prefigure_two_triangles-__line-2" x1="345.0" y1="125.0" x2="315.0" y2="85.0" stroke="black" stroke-width="1" fill="none"/>
  <g id="prefigure_two_triangles-__line-3">
    <g transform="translate(105.0,305.0) rotate(0.0)">
      <g id="prefigure_two_triangles-__label-0" transform="translate(124.0,4.0) translate(0.0,-0.0)">
        <g id="prefigure_two_triangles-__g-6">
          <svg xmlns:xlink="http://www.w3.org/1999/xlink" style="vertical-align: -0.200px" width="10.352px" height="8.200px" role="img" focusable="false" viewBox="0 -442 572 453" x="0.0" y="0.0">
            <defs>
              <path id="prefigure_two_triangles-MJX-2-TEX-I-1D465" d="M52 289Q59 331 106 386T222 442Q257 442 286 424T329 379Q371 442 430 442Q467 442 494 420T522 361Q522 332 508 314T481 292T458 288Q439 288 427 299T415 328Q415 374 465 391Q454 404 425 404Q412 404 406 402Q368 386 350 336Q290 115 290 78Q290 50 306 38T341 26Q378 26 414 59T463 140Q466 150 469 151T485 153H489Q504 153 504 145Q504 144 502 134Q486 77 440 33T333 -11Q263 -11 227 52Q186 -10 133 -10H127Q78 -10 57 16T35 71Q35 103 54 123T99 143Q142 143 142 101Q142 81 130 66T107 46T94 41L91 40Q91 39 97 36T113 29T132 26Q168 26 194 71Q203 87 217 139T245 247T261 313Q266 340 266 352Q266 380 251 392T217 404Q177 404 142 372T93 290Q91 281 88 280T72 278H58Q52 284 52 289Z"/>
            </defs>
            <g stroke="currentColor" fill="currentColor" stroke-width="0" transform="scale(1,-1)">
              <g data-mml-node="math">
                <g data-mml-node="mi" data-semantic-type="identifier" data-semantic-role="latinletter" data-semantic-font="italic" data-semantic-annotation="clearspeak:simple" data-semantic-id="0" data-semantic-speech="x">
                  <use data-c="1D465" xlink:href="#prefigure_two_triangles-MJX-2-TEX-I-1D465"/>
                </g>
              </g>
            </g>
          </svg>
        </g>
      </g>
    </g>
    <line x1="105.0" y1="305.0" x2="345.0" y2="305.0" stroke="black" stroke-width="2" fill="none"/>
  </g>
  <g id="prefigure_two_triangles-__line-4">
    <g transform="translate(345.0,305.0) rotate(-90.0)">
      <g id="prefigure_two_triangles-__label-1" transform="translate(90.0,9.0) rotate(90.0) translate(-4.4,-0.0)">
        <g id="prefigure_two_triangles-__g-7">
          <svg xmlns:xlink="http://www.w3.org/1999/xlink" style="vertical-align: -3.712px" width="8.872px" height="11.712px" role="img" focusable="false" viewBox="0 -442 490 647" x="0.0" y="0.0">
            <defs>
              <path id="prefigure_two_triangles-MJX-3-TEX-I-1D466" d="M21 287Q21 301 36 335T84 406T158 442Q199 442 224 419T250 355Q248 336 247 334Q247 331 231 288T198 191T182 105Q182 62 196 45T238 27Q261 27 281 38T312 61T339 94Q339 95 344 114T358 173T377 247Q415 397 419 404Q432 431 462 431Q475 431 483 424T494 412T496 403Q496 390 447 193T391 -23Q363 -106 294 -155T156 -205Q111 -205 77 -183T43 -117Q43 -95 50 -80T69 -58T89 -48T106 -45Q150 -45 150 -87Q150 -107 138 -122T115 -142T102 -147L99 -148Q101 -153 118 -160T152 -167H160Q177 -167 186 -165Q219 -156 247 -127T290 -65T313 -9T321 21L315 17Q309 13 296 6T270 -6Q250 -11 231 -11Q185 -11 150 11T104 82Q103 89 103 113Q103 170 138 262T173 379Q173 380 173 381Q173 390 173 393T169 400T158 404H154Q131 404 112 385T82 344T65 302T57 280Q55 278 41 278H27Q21 284 21 287Z"/>
            </defs>
            <g stroke="currentColor" fill="currentColor" stroke-width="0" transform="scale(1,-1)">
              <g data-mml-node="math">
                <g data-mml-node="mi" data-semantic-type="identifier" data-semantic-role="latinletter" data-semantic-font="italic" data-semantic-annotation="clearspeak:simple" data-semantic-id="0" data-semantic-speech="y">
                  <use data-c="1D466" xlink:href="#prefigure_two_triangles-MJX-3-TEX-I-1D466"/>
                </g>
              </g>
            </g>
          </svg>
        </g>
      </g>
    </g>
    <line x1="345.0" y1="305.0" x2="345.0" y2="125.0" stroke="black" stroke-width="2" fill="none"/>
  </g>
  <g id="prefigure_two_triangles-__line-5">
    <g transform="translate(105.0,305.0) rotate(-36.9)">
      <g id="prefigure_two_triangles-__label-2" transform="translate(60.0,-4.0) translate(-4.5,-12.1)">
        <g id="prefigure_two_triangles-__g-8">
          <svg xmlns:xlink="http://www.w3.org/1999/xlink" style="vertical-align: 0.000px" width="9.048px" height="12.056px" role="img" focusable="false" viewBox="0 -666 500 666" x="0.0" y="0.0">
            <defs>
              <path id="prefigure_two_triangles-MJX-4-TEX-N-31" d="M213 578L200 573Q186 568 160 563T102 556H83V602H102Q149 604 189 617T245 641T273 663Q275 666 285 666Q294 666 302 660V361L303 61Q310 54 315 52T339 48T401 46H427V0H416Q395 3 257 3Q121 3 100 0H88V46H114Q136 46 152 46T177 47T193 50T201 52T207 57T213 61V578Z"/>
            </defs>
            <g stroke="currentColor" fill="currentColor" stroke-width="0" transform="scale(1,-1)">
              <g data-mml-node="math">
                <g data-mml-node="mn" data-semantic-type="number" data-semantic-role="integer" data-semantic-font="normal" data-semantic-annotation="clearspeak:simple" data-semantic-id="0" data-semantic-speech="1">
                  <use data-c="31" xlink:href="#prefigure_two_triangles-MJX-4-TEX-N-31"/>
                </g>
              </g>
            </g>
          </svg>
        </g>
      </g>
    </g>
    <line x1="105.0" y1="305.0" x2="201.0" y2="233.0" stroke="black" stroke-width="2" fill="none"/>
  </g>
  <g id="prefigure_two_triangles-__line-6">
    <g transform="translate(82.5,275.0) rotate(-36.9)">
      <g id="prefigure_two_triangles-__label-3" transform="translate(150.0,-4.0) translate(-4.1,-8.2)">
        <g id="prefigure_two_triangles-__g-9">
          <svg xmlns:xlink="http://www.w3.org/1999/xlink" style="vertical-align: -0.200px" width="8.160px" height="8.200px" role="img" focusable="false" viewBox="0 -442 451 453" x="0.0" y="0.0">
            <defs>
              <path id="prefigure_two_triangles-MJX-5-TEX-I-1D45F" d="M21 287Q22 290 23 295T28 317T38 348T53 381T73 411T99 433T132 442Q161 442 183 430T214 408T225 388Q227 382 228 382T236 389Q284 441 347 441H350Q398 441 422 400Q430 381 430 363Q430 333 417 315T391 292T366 288Q346 288 334 299T322 328Q322 376 378 392Q356 405 342 405Q286 405 239 331Q229 315 224 298T190 165Q156 25 151 16Q138 -11 108 -11Q95 -11 87 -5T76 7T74 17Q74 30 114 189T154 366Q154 405 128 405Q107 405 92 377T68 316T57 280Q55 278 41 278H27Q21 284 21 287Z"/>
            </defs>
            <g stroke="currentColor" fill="currentColor" stroke-width="0" transform="scale(1,-1)">
              <g data-mml-node="math">
                <g data-mml-node="mi" data-semantic-type="identifier" data-semantic-role="latinletter" data-semantic-font="italic" data-semantic-annotation="clearspeak:simple" data-semantic-id="0" data-semantic-speech="r">
                  <use data-c="1D45F" xlink:href="#prefigure_two_triangles-MJX-5-TEX-I-1D45F"/>
                </g>
              </g>
            </g>
          </svg>
        </g>
      </g>
    </g>
    <line x1="84.5" y1="273.5" x2="320.5" y2="96.5" stroke="black" stroke-width="2" fill="none" marker-end="url(#prefigure_two_triangles-arrow-head-end-2_None_24_60-black)" marker-start="url(#prefigure_two_triangles-arrow-head-end-2_None_24_60-black)"/>
  </g>
  <path id="prefigure_two_triangles-__path-0" d="M 223.2 325.8 L 223.4 324.4 L 223.7 322.9 L 223.9 321.5 L 224.1 320.0 L 224.2 318.6 L 224.4 317.1 L 224.5 315.7 L 224.6 314.2 L 224.7 312.7 L 224.8 311.3 L 224.9 309.8 L 225.0 308.4 L 225.0 306.9 L 225.0 305.4 L 225.0 304.0 L 225.0 302.5 L 224.9 301.0 L 224.9 299.6 L 224.8 298.1 L 224.7 296.6 L 224.6 295.2 L 224.5 293.7 L 224.3 292.2 L 224.2 290.8 L 224.0 289.3 L 223.8 287.9 L 223.6 286.4 L 223.3 285.0 L 223.1 283.5 L 222.8 282.1 L 222.5 280.7 L 222.2 279.2 L 221.9 277.8 L 221.5 276.4 L 221.2 275.0 L 220.8 273.5 L 220.4 272.1 L 220.0 270.7 L 219.6 269.3 L 219.1 267.9 L 218.7 266.5 L 218.2 265.1 L 217.7 263.8 L 217.2 262.4 L 216.7 261.0 L 216.1 259.7 L 215.5 258.3 L 215.0 257.0 L 214.4 255.6 L 213.8 254.3 L 213.1 253.0 L 212.5 251.6 L 211.8 250.3 L 211.1 249.0 L 210.5 247.7 L 209.8 246.5 L 209.0 245.2 L 208.3 243.9 L 207.5 242.7 L 206.8 241.4 L 206.0 240.2 L 205.2 238.9 L 204.4 237.7 L 203.5 236.5 L 202.7 235.3 L 201.8 234.1 L 201.0 232.9 L 200.1 231.8 L 199.2 230.6 L 198.3 229.5 L 197.3 228.3 L 196.4 227.2 L 195.4 226.1 L 194.5 225.0 L 193.5 223.9 L 192.5 222.9 L 191.5 221.8 L 190.4 220.7 L 189.4 219.7 L 188.4 218.7 L 187.3 217.7 L 186.2 216.7 L 185.1 215.7 L 184.0 214.7 L 182.9 213.8 L 181.8 212.8 L 180.7 211.9 L 179.5 211.0 L 178.4 210.1 L 177.2 209.2 L 176.0 208.3 L 174.9 207.4 L 173.7 206.6 L 172.5 205.8 L 171.2 204.9 L 170.0 204.1 L 168.8 203.3 L 167.5 202.6 L 166.3 201.8 L 165.0 201.1" stroke="#777" stroke-width="1" fill="none"/>
  <g id="prefigure_two_triangles-__group-0">
    <path id="prefigure_two_triangles-__path-1" d="M 105.0 305.0 L 345.0 125.0 L 345.0 305.0 Z" stroke="black" stroke-width="2" fill="none" clip-path="url(#prefigure_two_triangles-__clipPath-1)"/>
    <g id="prefigure_two_triangles-__g-0">
      <g id="prefigure_two_triangles-__label-4" transform="translate(97.0,305.0) translate(-13.8,-6.6)">
        <g id="prefigure_two_triangles-__g-10">
          <svg xmlns:xlink="http://www.w3.org/1999/xlink" style="vertical-align: -0.400px" width="13.808px" height="13.144px" role="img" focusable="false" viewBox="0 -704 763 726" x="0.0" y="0.0">
            <defs>
              <path id="prefigure_two_triangles-MJX-6-TEX-I-1D442" d="M740 435Q740 320 676 213T511 42T304 -22Q207 -22 138 35T51 201Q50 209 50 244Q50 346 98 438T227 601Q351 704 476 704Q514 704 524 703Q621 689 680 617T740 435ZM637 476Q637 565 591 615T476 665Q396 665 322 605Q242 542 200 428T157 216Q157 126 200 73T314 19Q404 19 485 98T608 313Q637 408 637 476Z"/>
            </defs>
            <g stroke="currentColor" fill="currentColor" stroke-width="0" transform="scale(1,-1)">
              <g data-mml-node="math">
                <g data-mml-node="mi" data-semantic-type="identifier" data-semantic-role="latinletter" data-semantic-font="italic" data-semantic-annotation="clearspeak:simple" data-semantic-id="0" data-semantic-speech="upper O">
                  <use data-c="1D442" xlink:href="#prefigure_two_triangles-MJX-6-TEX-I-1D442"/>
                </g>
              </g>
            </g>
          </svg>
        </g>
      </g>
      <circle cx="105.0" cy="305.0" r="4" stroke="black" stroke-width="2" fill="orange"/>
    </g>
    <g id="prefigure_two_triangles-__g-1">
      <g id="prefigure_two_triangles-__label-5" transform="translate(350.0,120.0) translate(0.0,-12.4)">
        <g id="prefigure_two_triangles-__g-11">
          <svg xmlns:xlink="http://www.w3.org/1999/xlink" style="vertical-align: 0.000px" width="13.592px" height="12.360px" role="img" focusable="false" viewBox="0 -683 751 683" x="0.0" y="0.0">
            <defs>
              <path id="prefigure_two_triangles-MJX-7-TEX-I-1D443" d="M287 628Q287 635 230 637Q206 637 199 638T192 648Q192 649 194 659Q200 679 203 681T397 683Q587 682 600 680Q664 669 707 631T751 530Q751 453 685 389Q616 321 507 303Q500 302 402 301H307L277 182Q247 66 247 59Q247 55 248 54T255 50T272 48T305 46H336Q342 37 342 35Q342 19 335 5Q330 0 319 0Q316 0 282 1T182 2Q120 2 87 2T51 1Q33 1 33 11Q33 13 36 25Q40 41 44 43T67 46Q94 46 127 49Q141 52 146 61Q149 65 218 339T287 628ZM645 554Q645 567 643 575T634 597T609 619T560 635Q553 636 480 637Q463 637 445 637T416 636T404 636Q391 635 386 627Q384 621 367 550T332 412T314 344Q314 342 395 342H407H430Q542 342 590 392Q617 419 631 471T645 554Z"/>
            </defs>
            <g stroke="currentColor" fill="currentColor" stroke-width="0" transform="scale(1,-1)">
              <g data-mml-node="math">
                <g data-mml-node="mi" data-semantic-type="identifier" data-semantic-role="latinletter" data-semantic-font="italic" data-semantic-annotation="clearspeak:simple" data-semantic-id="0" data-semantic-speech="upper P">
                  <use data-c="1D443" xlink:href="#prefigure_two_triangles-MJX-7-TEX-I-1D443"/>
                </g>
              </g>
            </g>
          </svg>
        </g>
      </g>
      <circle cx="345.0" cy="125.0" r="4" stroke="black" stroke-width="2" fill="orange"/>
    </g>
    <g id="prefigure_two_triangles-__g-2">
      <g id="prefigure_two_triangles-__label-6" transform="translate(350.0,310.0) translate(0.0,-0.0)">
        <g id="prefigure_two_triangles-__g-12">
          <svg xmlns:xlink="http://www.w3.org/1999/xlink" style="vertical-align: -3.512px" width="14.320px" height="16.256px" role="img" focusable="false" viewBox="0 -704 791 898" x="0.0" y="0.0">
            <defs>
              <path id="prefigure_two_triangles-MJX-8-TEX-I-1D444" d="M399 -80Q399 -47 400 -30T402 -11V-7L387 -11Q341 -22 303 -22Q208 -22 138 35T51 201Q50 209 50 244Q50 346 98 438T227 601Q351 704 476 704Q514 704 524 703Q621 689 680 617T740 435Q740 255 592 107Q529 47 461 16L444 8V3Q444 2 449 -24T470 -66T516 -82Q551 -82 583 -60T625 -3Q631 11 638 11Q647 11 649 2Q649 -6 639 -34T611 -100T557 -165T481 -194Q399 -194 399 -87V-80ZM636 468Q636 523 621 564T580 625T530 655T477 665Q429 665 379 640Q277 591 215 464T153 216Q153 110 207 59Q231 38 236 38V46Q236 86 269 120T347 155Q372 155 390 144T417 114T429 82T435 55L448 64Q512 108 557 185T619 334T636 468ZM314 18Q362 18 404 39L403 49Q399 104 366 115Q354 117 347 117Q344 117 341 117T337 118Q317 118 296 98T274 52Q274 18 314 18Z"/>
            </defs>
            <g stroke="currentColor" fill="currentColor" stroke-width="0" transform="scale(1,-1)">
              <g data-mml-node="math">
                <g data-mml-node="mi" data-semantic-type="identifier" data-semantic-role="latinletter" data-semantic-font="italic" data-semantic-annotation="clearspeak:simple" data-semantic-id="0" data-semantic-speech="upper Q">
                  <use data-c="1D444" xlink:href="#prefigure_two_triangles-MJX-8-TEX-I-1D444"/>
                </g>
              </g>
            </g>
          </svg>
        </g>
      </g>
      <circle cx="345.0" cy="305.0" r="4" stroke="black" stroke-width="2" fill="orange"/>
    </g>
  </g>
  <g id="prefigure_two_triangles-__g-3">
    <g id="prefigure_two_triangles-__label-7" transform="translate(205.0,237.0) translate(0.0,-0.0)">
      <g id="prefigure_two_triangles-__g-13">
        <text font-family="sans-serif" font-size="14" x="0.0" y="10.0">M</text>
      </g>
    </g>
    <circle cx="201.0" cy="233.0" r="3" stroke="black" stroke-width="2" fill="orange"/>
  </g>
  <g id="prefigure_two_triangles-__g-4">
    <g id="prefigure_two_triangles-__label-8" transform="translate(201.0,312.0) translate(-5.4,-0.0)">
      <g id="prefigure_two_triangles-__g-14">
        <text font-family="sans-serif" font-size="14" x="0.0" y="10.0">N</text>
      </g>
    </g>
    <circle cx="201.0" cy="305.0" r="3" stroke="black" stroke-width="2" fill="orange"/>
  </g>
  <g id="prefigure_two_triangles-__g-5">
    <g id="prefigure_two_triangles-__label-9" transform="translate(142.2,293.9) translate(0.0,-6.5)">
      <g id="prefigure_two_triangles-__g-15">
        <svg xmlns:xlink="http://www.w3.org/1999/xlink" style="vertical-align: -0.184px" width="8.488px" height="12.944px" role="img" focusable="false" viewBox="0 -705 469 715" x="0.0" y="0.0">
          <defs>
            <path id="prefigure_two_triangles-MJX-9-TEX-I-1D703" d="M35 200Q35 302 74 415T180 610T319 704Q320 704 327 704T339 705Q393 701 423 656Q462 596 462 495Q462 380 417 261T302 66T168 -10H161Q125 -10 99 10T60 63T41 130T35 200ZM383 566Q383 668 330 668Q294 668 260 623T204 521T170 421T157 371Q206 370 254 370L351 371Q352 372 359 404T375 484T383 566ZM113 132Q113 26 166 26Q181 26 198 36T239 74T287 161T335 307L340 324H145Q145 321 136 286T120 208T113 132Z"/>
          </defs>
          <g stroke="currentColor" fill="currentColor" stroke-width="0" transform="scale(1,-1)">
            <g data-mml-node="math">
              <g data-mml-node="mi" data-semantic-type="identifier" data-semantic-role="greekletter" data-semantic-font="italic" data-semantic-annotation="clearspeak:simple" data-semantic-id="0" data-semantic-speech="theta">
                <use data-c="1D703" xlink:href="#prefigure_two_triangles-MJX-9-TEX-I-1D703"/>
              </g>
            </g>
          </g>
        </svg>
      </g>
    </g>
    <path stroke="black" stroke-width="1" fill="none" marker-start="url(#prefigure_two_triangles-arrow-head-end-1_None_24_60-black)" d="M 133.7 285.0 L 133.8 285.2 L 134.0 285.3 L 134.1 285.5 L 134.2 285.7 L 134.3 285.9 L 134.4 286.1 L 134.5 286.2 L 134.7 286.4 L 134.8 286.6 L 134.9 286.8 L 135.0 287.0 L 135.1 287.1 L 135.2 287.3 L 135.3 287.5 L 135.4 287.7 L 135.5 287.9 L 135.6 288.1 L 135.7 288.3 L 135.8 288.4 L 135.9 288.6 L 136.0 288.8 L 136.1 289.0 L 136.2 289.2 L 136.3 289.4 L 136.4 289.6 L 136.5 289.8 L 136.6 290.0 L 136.7 290.2 L 136.8 290.3 L 136.9 290.5 L 137.0 290.7 L 137.0 290.9 L 137.1 291.1 L 137.2 291.3 L 137.3 291.5 L 137.4 291.7 L 137.5 291.9 L 137.5 292.1 L 137.6 292.3 L 137.7 292.5 L 137.8 292.7 L 137.8 292.9 L 137.9 293.1 L 138.0 293.3 L 138.1 293.5 L 138.1 293.7 L 138.2 293.9 L 138.3 294.1 L 138.3 294.3 L 138.4 294.5 L 138.5 294.7 L 138.5 294.9 L 138.6 295.1 L 138.6 295.3 L 138.7 295.5 L 138.8 295.7 L 138.8 295.9 L 138.9 296.2 L 138.9 296.4 L 139.0 296.6 L 139.0 296.8 L 139.1 297.0 L 139.1 297.2 L 139.2 297.4 L 139.2 297.6 L 139.3 297.8 L 139.3 298.0 L 139.3 298.2 L 139.4 298.4 L 139.4 298.6 L 139.5 298.9 L 139.5 299.1 L 139.5 299.3 L 139.6 299.5 L 139.6 299.7 L 139.6 299.9 L 139.7 300.1 L 139.7 300.3 L 139.7 300.5 L 139.7 300.8 L 139.8 301.0 L 139.8 301.2 L 139.8 301.4 L 139.8 301.6 L 139.9 301.8 L 139.9 302.0 L 139.9 302.2 L 139.9 302.4 L 139.9 302.7 L 139.9 302.9 L 139.9 303.1 L 140.0 303.3 L 140.0 303.5 L 140.0 303.7 L 140.0 303.9 L 140.0 304.1 L 140.0 304.4 L 140.0 304.6 L 140.0 304.8 L 140.0 305.0"/>
  </g>
  <path id="prefigure_two_triangles-__path-2" stroke="black" stroke-width="2" fill="none" d="M 345.0 288.0 L 328.0 288.0 L 328.0 305.0"/>
  <path id="prefigure_two_triangles-__path-3" stroke="black" stroke-width="2" fill="none" d="M 201.0 288.0 L 184.0 288.0 L 184.0 305.0"/>
</svg>
