<svg xmlns="http://www.w3.org/2000/svg" id="prefig-projection-figure" width="550" height="350" viewBox="0 0 550 350">
  <defs>
    <clipPath id="prefig-projection-__clipPath-0">
      <rect x="25.0" y="25.0" width="500.0" height="300.0"/>
    </clipPath>
    <clipPath id="prefig-projection-__clipPath-1">
      <rect x="25.0" y="25.0" width="500.0" height="300.0"/>
    </clipPath>
    <marker id="prefig-projection-arrow-head-end-2_None_24_60-black" markerWidth="9.0" markerHeight="8.0" markerUnits="userSpaceOnUse" orient="auto" refX="6.5" refY="4.0">
      <path d="M 9.0 4.0L 0.0 8.0L 1.7 5.0L 1.7 3.0L 0.0 0.0Z" fill="black" stroke="none"/>
    </marker>
    <marker id="prefig-projection-arrow-head-end-2_None_24_60-black-outline" markerWidth="13.0" markerHeight="12.0" markerUnits="userSpaceOnUse" orient="auto" refX="8.5" refY="6.0">
      <path d="M 11.8 7.8 L 2.8 11.8 A 2 2 0 0 1 0.0 10.0 L 0.0 2.0 A 2 2 0 0 1 2.8 0.2 L 11.8 4.2 A 2 2 0 0 1 11.8 7.8 Z" fill="white" stroke="none"/>
    </marker>
    <marker id="prefig-projection-arrow-head-end-4_None_24_60-black" markerWidth="18.0" markerHeight="16.0" markerUnits="userSpaceOnUse" orient="auto" refX="13.1" refY="8.0">
      <path d="M 18.0 8.0L 0.0 16.0L 3.5 10.0L 3.5 6.0L 0.0 0.0Z" fill="black" stroke="none"/>
    </marker>
    <marker id="prefig-projection-arrow-head-end-4_None_24_60-black-outline" markerWidth="22.0" markerHeight="20.0" markerUnits="userSpaceOnUse" orient="auto" refX="15.1" refY="10.0">
      <path d="M 20.8 11.8 L 2.8 19.8 A 2 2 0 0 1 0.0 18.0 L 0.0 2.0 A 2 2 0 0 1 2.8 0.2 L 20.8 8.2 A 2 2 0 0 1 20.8 11.8 Z" fill="white" stroke="none"/>
    </marker>
    <marker id="prefig-projection-arrow-head-start-2_None_24_60-black" markerWidth="9.0" markerHeight="8.0" markerUnits="userSpaceOnUse" orient="auto" refX="2.5" refY="4.0">
      <g transform="rotate(180, 4.5, 4.0)">
        <path d="M 9.0 4.0L 0.0 8.0L 1.7 5.0L 1.7 3.0L 0.0 0.0Z" fill="black" stroke="none"/>
      </g>
    </marker>
    <marker id="prefig-projection-arrow-head-start-2_None_24_60-black-outline" markerWidth="13.0" markerHeight="12.0" markerUnits="userSpaceOnUse" orient="auto" refX="4.5" refY="6.0">
      <g transform="rotate(180, 6.5, 6.0)">
        <path d="M 11.8 7.8 L 2.8 11.8 A 2 2 0 0 1 0.0 10.0 L 0.0 2.0 A 2 2 0 0 1 2.8 0.2 L 11.8 4.2 A 2 2 0 0 1 11.8 7.8 Z" fill="white" stroke="none"/>
      </g>
    </marker>
    <marker id="prefig-projection-arrow-head-start-4_None_24_60-black" markerWidth="18.0" markerHeight="16.0" markerUnits="userSpaceOnUse" orient="auto" refX="4.9" refY="8.0">
      <g transform="rotate(180, 9.0, 8.0)">
        <path d="M 18.0 8.0L 0.0 16.0L 3.5 10.0L 3.5 6.0L 0.0 0.0Z" fill="black" stroke="none"/>
      </g>
    </marker>
    <marker id="prefig-projection-arrow-head-start-4_None_24_60-black-outline" markerWidth="22.0" markerHeight="20.0" markerUnits="userSpaceOnUse" orient="auto" refX="6.9" refY="10.0">
      <g transform="rotate(180, 11.0, 10.0)">
        <path d="M 20.8 11.8 L 2.8 19.8 A 2 2 0 0 1 0.0 18.0 L 0.0 2.0 A 2 2 0 0 1 2.8 0.2 L 20.8 8.2 A 2 2 0 0 1 20.8 11.8 Z" fill="white" stroke="none"/>
      </g>
    </marker>
  </defs>
  <g id="prefig-projection-__g-0">
    <g id="prefig-projection-__label-0" transform="translate(331.0,169.0) translate(0.0,-18.0)">
      <g id="prefig-projection-__g-4">
        <svg xmlns:xlink="http://www.w3.org/1999/xlink" style="vertical-align: -2.712px" width="16.680px" height="18.024px" role="img" focusable="false" viewBox="0 -846 921.6 996" x="0.0" y="0.0">
          <defs>
            <path id="prefig-projection-MJX-2-TEX-I-1D463" d="M173 380Q173 405 154 405Q130 405 104 376T61 287Q60 286 59 284T58 281T56 279T53 278T49 278T41 278H27Q21 284 21 287Q21 294 29 316T53 368T97 419T160 441Q202 441 225 417T249 361Q249 344 246 335Q246 329 231 291T200 202T182 113Q182 86 187 69Q200 26 250 26Q287 26 319 60T369 139T398 222T409 277Q409 300 401 317T383 343T365 361T357 383Q357 405 376 424T417 443Q436 443 451 425T467 367Q467 340 455 284T418 159T347 40T241 -11Q177 -11 139 22Q102 54 102 117Q102 148 110 181T151 298Q173 362 173 380Z"/>
            <path id="prefig-projection-MJX-2-TEX-N-20D7" d="M377 694Q377 702 382 708T397 714Q404 714 409 709Q414 705 419 690Q429 653 460 633Q471 626 471 615Q471 606 468 603T454 594Q411 572 379 531Q377 529 374 525T369 519T364 517T357 516Q350 516 344 521T337 536Q337 555 384 595H213L42 596Q29 605 29 615Q29 622 42 635H401Q377 673 377 694Z"/>
            <path id="prefig-projection-MJX-2-TEX-N-31" d="M213 578L200 573Q186 568 160 563T102 556H83V602H102Q149 604 189 617T245 641T273 663Q275 666 285 666Q294 666 302 660V361L303 61Q310 54 315 52T339 48T401 46H427V0H416Q395 3 257 3Q121 3 100 0H88V46H114Q136 46 152 46T177 47T193 50T201 52T207 57T213 61V578Z"/>
          </defs>
          <g stroke="currentColor" fill="currentColor" stroke-width="0" transform="scale(1,-1)">
            <g data-mml-node="math">
              <g data-mml-node="msub" data-semantic-type="subscript" data-semantic-role="latinletter" data-semantic-id="4" data-semantic-children="2,3" data-semantic-speech="ModifyingAbove v With right arrow Subscript 1">
                <g data-mml-node="TeXAtom" data-mjx-texclass="ORD">
                  <g data-mml-node="mover" data-semantic-type="overscore" data-semantic-role="latinletter" data-semantic-id="2" data-semantic-children="0,1" data-semantic-parent="4" data-semantic-attributes="texclass:ORD" data-semantic-speech="ModifyingAbove v With right arrow" data-semantic-prefix="Base">
                    <g data-mml-node="mi" data-semantic-type="identifier" data-semantic-role="latinletter" data-semantic-font="italic" data-semantic-annotation="clearspeak:simple" data-semantic-id="0" data-semantic-parent="2" data-semantic-speech="v" data-semantic-prefix="Base">
                      <use data-c="1D463" xlink:href="#prefig-projection-MJX-2-TEX-I-1D463"/>
                    </g>
                    <g data-mml-node="mo" data-semantic-type="relation" data-semantic-role="overaccent" data-semantic-annotation="accent:arrow" data-semantic-id="1" data-semantic-parent="2" data-semantic-speech="right arrow" data-semantic-prefix="Overscript" transform="translate(270.3,32) translate(-250 0)">
                      <use data-c="20D7" xlink:href="#prefig-projection-MJX-2-TEX-N-20D7"/>
                    </g>
                  </g>
                </g>
                <g data-mml-node="TeXAtom" transform="translate(518,-150) scale(0.707)" data-mjx-texclass="ORD">
                  <g data-mml-node="mn" data-semantic-type="number" data-semantic-role="integer" data-semantic-font="normal" data-semantic-annotation="clearspeak:simple" data-semantic-id="3" data-semantic-parent="4" data-semantic-attributes="texclass:ORD" data-semantic-speech="1" data-semantic-prefix="Subscript">
                    <use data-c="31" xlink:href="#prefig-projection-MJX-2-TEX-N-31"/>
                  </g>
                </g>
              </g>
            </g>
          </g>
        </svg>
      </g>
    </g>
    <path stroke="black" stroke-width="2" fill="none" marker-end="url(#prefig-projection-arrow-head-end-2_None_24_60-black)" d="M 175.0 225.0 L 322.7 175.8"/>
  </g>
  <g id="prefig-projection-__g-1">
    <g id="prefig-projection-__label-1" transform="translate(376.0,271.1) translate(0.0,-18.0)">
      <g id="prefig-projection-__g-5">
        <svg xmlns:xlink="http://www.w3.org/1999/xlink" style="vertical-align: -2.712px" width="16.680px" height="18.024px" role="img" focusable="false" viewBox="0 -846 921.6 996" x="0.0" y="0.0">
          <defs>
            <path id="prefig-projection-MJX-3-TEX-I-1D463" d="M173 380Q173 405 154 405Q130 405 104 376T61 287Q60 286 59 284T58 281T56 279T53 278T49 278T41 278H27Q21 284 21 287Q21 294 29 316T53 368T97 419T160 441Q202 441 225 417T249 361Q249 344 246 335Q246 329 231 291T200 202T182 113Q182 86 187 69Q200 26 250 26Q287 26 319 60T369 139T398 222T409 277Q409 300 401 317T383 343T365 361T357 383Q357 405 376 424T417 443Q436 443 451 425T467 367Q467 340 455 284T418 159T347 40T241 -11Q177 -11 139 22Q102 54 102 117Q102 148 110 181T151 298Q173 362 173 380Z"/>
            <path id="prefig-projection-MJX-3-TEX-N-20D7" d="M377 694Q377 702 382 708T397 714Q404 714 409 709Q414 705 419 690Q429 653 460 633Q471 626 471 615Q471 606 468 603T454 594Q411 572 379 531Q377 529 374 525T369 519T364 517T357 516Q350 516 344 521T337 536Q337 555 384 595H213L42 596Q29 605 29 615Q29 622 42 635H401Q377 673 377 694Z"/>
            <path id="prefig-projection-MJX-3-TEX-N-32" d="M109 429Q82 429 66 447T50 491Q50 562 103 614T235 666Q326 666 387 610T449 465Q449 422 429 383T381 315T301 241Q265 210 201 149L142 93L218 92Q375 92 385 97Q392 99 409 186V189H449V186Q448 183 436 95T421 3V0H50V19V31Q50 38 56 46T86 81Q115 113 136 137Q145 147 170 174T204 211T233 244T261 278T284 308T305 340T320 369T333 401T340 431T343 464Q343 527 309 573T212 619Q179 619 154 602T119 569T109 550Q109 549 114 549Q132 549 151 535T170 489Q170 464 154 447T109 429Z"/>
          </defs>
          <g stroke="currentColor" fill="currentColor" stroke-width="0" transform="scale(1,-1)">
            <g data-mml-node="math">
              <g data-mml-node="msub" data-semantic-type="subscript" data-semantic-role="latinletter" data-semantic-id="4" data-semantic-children="2,3" data-semantic-speech="ModifyingAbove v With right arrow Subscript 2">
                <g data-mml-node="TeXAtom" data-mjx-texclass="ORD">
                  <g data-mml-node="mover" data-semantic-type="overscore" data-semantic-role="latinletter" data-semantic-id="2" data-semantic-children="0,1" data-semantic-parent="4" data-semantic-attributes="texclass:ORD" data-semantic-speech="ModifyingAbove v With right arrow" data-semantic-prefix="Base">
                    <g data-mml-node="mi" data-semantic-type="identifier" data-semantic-role="latinletter" data-semantic-font="italic" data-semantic-annotation="clearspeak:simple" data-semantic-id="0" data-semantic-parent="2" data-semantic-speech="v" data-semantic-prefix="Base">
                      <use data-c="1D463" xlink:href="#prefig-projection-MJX-3-TEX-I-1D463"/>
                    </g>
                    <g data-mml-node="mo" data-semantic-type="relation" data-semantic-role="overaccent" data-semantic-annotation="accent:arrow" data-semantic-id="1" data-semantic-parent="2" data-semantic-speech="right arrow" data-semantic-prefix="Overscript" transform="translate(270.3,32) translate(-250 0)">
                      <use data-c="20D7" xlink:href="#prefig-projection-MJX-3-TEX-N-20D7"/>
                    </g>
                  </g>
                </g>
                <g data-mml-node="TeXAtom" transform="translate(518,-150) scale(0.707)" data-mjx-texclass="ORD">
                  <g data-mml-node="mn" data-semantic-type="number" data-semantic-role="integer" data-semantic-font="normal" data-semantic-annotation="clearspeak:simple" data-semantic-id="3" data-semantic-parent="4" data-semantic-attributes="texclass:ORD" data-semantic-speech="2" data-semantic-prefix="Subscript">
                    <use data-c="32" xlink:href="#prefig-projection-MJX-3-TEX-N-32"/>
                  </g>
                </g>
              </g>
            </g>
          </g>
        </svg>
      </g>
    </g>
    <path stroke="black" stroke-width="2" fill="none" marker-end="url(#prefig-projection-arrow-head-end-2_None_24_60-black)" d="M 175.0 225.0 L 372.6 274.4"/>
  </g>
  <g id="prefig-projection-__g-2">
    <g id="prefig-projection-__label-2" transform="translate(298.4,263.4) translate(-75.8,-0.0)">
      <g id="prefig-projection-__g-6">
        <svg xmlns:xlink="http://www.w3.org/1999/xlink" style="vertical-align: -6.344px" width="75.808px" height="21.656px" role="img" focusable="false" viewBox="0 -846 4188.2 1196.7" x="0.0" y="0.0">
          <defs>
            <path id="prefig-projection-MJX-4-TEX-N-70" d="M36 -148H50Q89 -148 97 -134V-126Q97 -119 97 -107T97 -77T98 -38T98 6T98 55T98 106Q98 140 98 177T98 243T98 296T97 335T97 351Q94 370 83 376T38 385H20V408Q20 431 22 431L32 432Q42 433 61 434T98 436Q115 437 135 438T165 441T176 442H179V416L180 390L188 397Q247 441 326 441Q407 441 464 377T522 216Q522 115 457 52T310 -11Q242 -11 190 33L182 40V-45V-101Q182 -128 184 -134T195 -145Q216 -148 244 -148H260V-194H252L228 -193Q205 -192 178 -192T140 -191Q37 -191 28 -194H20V-148H36ZM424 218Q424 292 390 347T305 402Q234 402 182 337V98Q222 26 294 26Q345 26 384 80T424 218Z"/>
            <path id="prefig-projection-MJX-4-TEX-N-72" d="M36 46H50Q89 46 97 60V68Q97 77 97 91T98 122T98 161T98 203Q98 234 98 269T98 328L97 351Q94 370 83 376T38 385H20V408Q20 431 22 431L32 432Q42 433 60 434T96 436Q112 437 131 438T160 441T171 442H174V373Q213 441 271 441H277Q322 441 343 419T364 373Q364 352 351 337T313 322Q288 322 276 338T263 372Q263 381 265 388T270 400T273 405Q271 407 250 401Q234 393 226 386Q179 341 179 207V154Q179 141 179 127T179 101T180 81T180 66V61Q181 59 183 57T188 54T193 51T200 49T207 48T216 47T225 47T235 46T245 46H276V0H267Q249 3 140 3Q37 3 28 0H20V46H36Z"/>
            <path id="prefig-projection-MJX-4-TEX-N-6F" d="M28 214Q28 309 93 378T250 448Q340 448 405 380T471 215Q471 120 407 55T250 -10Q153 -10 91 57T28 214ZM250 30Q372 30 372 193V225V250Q372 272 371 288T364 326T348 362T317 390T268 410Q263 411 252 411Q222 411 195 399Q152 377 139 338T126 246V226Q126 130 145 91Q177 30 250 30Z"/>
            <path id="prefig-projection-MJX-4-TEX-N-6A" d="M98 609Q98 637 116 653T160 669Q183 667 200 652T217 609Q217 579 200 564T158 549Q133 549 116 564T98 609ZM28 -163Q58 -168 64 -168Q124 -168 135 -77Q137 -65 137 141T136 353Q132 371 120 377T72 385H52V408Q52 431 54 431L58 432Q62 432 70 432T87 433T108 434T133 436Q151 437 171 438T202 441T214 442H218V184Q217 -36 217 -59T211 -98Q195 -145 153 -175T58 -205Q9 -205 -23 -179T-55 -117Q-55 -94 -40 -79T-2 -64T36 -79T52 -118Q52 -143 28 -163Z"/>
            <path id="prefig-projection-MJX-4-TEX-I-1D463" d="M173 380Q173 405 154 405Q130 405 104 376T61 287Q60 286 59 284T58 281T56 279T53 278T49 278T41 278H27Q21 284 21 287Q21 294 29 316T53 368T97 419T160 441Q202 441 225 417T249 361Q249 344 246 335Q246 329 231 291T200 202T182 113Q182 86 187 69Q200 26 250 26Q287 26 319 60T369 139T398 222T409 277Q409 300 401 317T383 343T365 361T357 383Q357 405 376 424T417 443Q436 443 451 425T467 367Q467 340 455 284T418 159T347 40T241 -11Q177 -11 139 22Q102 54 102 117Q102 148 110 181T151 298Q173 362 173 380Z"/>
            <path id="prefig-projection-MJX-4-TEX-N-20D7" d="M377 694Q377 702 382 708T397 714Q404 714 409 709Q414 705 419 690Q429 653 460 633Q471 626 471 615Q471 606 468 603T454 594Q411 572 379 531Q377 529 374 525T369 519T364 517T357 516Q350 516 344 521T337 536Q337 555 384 595H213L42 596Q29 605 29 615Q29 622 42 635H401Q377 673 377 694Z"/>
            <path id="prefig-projection-MJX-4-TEX-N-32" d="M109 429Q82 429 66 447T50 491Q50 562 103 614T235 666Q326 666 387 610T449 465Q449 422 429 383T381 315T301 241Q265 210 201 149L142 93L218 92Q375 92 385 97Q392 99 409 186V189H449V186Q448 183 436 95T421 3V0H50V19V31Q50 38 56 46T86 81Q115 113 136 137Q145 147 170 174T204 211T233 244T261 278T284 308T305 340T320 369T333 401T340 431T343 464Q343 527 309 573T212 619Q179 619 154 602T119 569T109 550Q109 549 114 549Q132 549 151 535T170 489Q170 464 154 447T109 429Z"/>
            <path id="prefig-projection-MJX-4-TEX-N-2062" d=""/>
            <path id="prefig-projection-MJX-4-TEX-N-28" d="M94 250Q94 319 104 381T127 488T164 576T202 643T244 695T277 729T302 750H315H319Q333 750 333 741Q333 738 316 720T275 667T226 581T184 443T167 250T184 58T225 -81T274 -167T316 -220T333 -241Q333 -250 318 -250H315H302L274 -226Q180 -141 137 -14T94 250Z"/>
            <path id="prefig-projection-MJX-4-TEX-N-31" d="M213 578L200 573Q186 568 160 563T102 556H83V602H102Q149 604 189 617T245 641T273 663Q275 666 285 666Q294 666 302 660V361L303 61Q310 54 315 52T339 48T401 46H427V0H416Q395 3 257 3Q121 3 100 0H88V46H114Q136 46 152 46T177 47T193 50T201 52T207 57T213 61V578Z"/>
            <path id="prefig-projection-MJX-4-TEX-N-29" d="M60 749L64 750Q69 750 74 750H86L114 726Q208 641 251 514T294 250Q294 182 284 119T261 12T224 -76T186 -143T145 -194T113 -227T90 -246Q87 -249 86 -250H74Q66 -250 63 -250T58 -247T55 -238Q56 -237 66 -225Q221 -64 221 250T66 725Q56 737 55 738Q55 746 60 749Z"/>
          </defs>
          <g stroke="currentColor" fill="currentColor" stroke-width="0" transform="scale(1,-1)">
            <g data-mml-node="math" data-semantic-type="infixop" data-semantic-role="implicit" data-semantic-annotation="clearspeak:unit" data-semantic-id="16" data-semantic-children="6,14" data-semantic-content="15" data-semantic-speech="p r o j Subscript ModifyingAbove v With right arrow Sub Subscript 2 Baseline left parenthesis ModifyingAbove v With right arrow Subscript 1 Baseline right parenthesis">
              <g data-mml-node="msub" data-semantic-type="subscript" data-semantic-role="unknown" data-semantic-id="6" data-semantic-children="0,5" data-semantic-parent="16" data-semantic-speech="p r o j Subscript ModifyingAbove v With right arrow Sub Subscript 2 Baseline">
                <g data-mml-node="mi" data-semantic-type="identifier" data-semantic-role="unknown" data-semantic-font="normal" data-semantic-id="0" data-semantic-parent="6" data-semantic-speech="p r o j" data-semantic-prefix="Base">
                  <use data-c="70" xlink:href="#prefig-projection-MJX-4-TEX-N-70"/>
                  <use data-c="72" xlink:href="#prefig-projection-MJX-4-TEX-N-72" transform="translate(556,0)"/>
                  <use data-c="6F" xlink:href="#prefig-projection-MJX-4-TEX-N-6F" transform="translate(948,0)"/>
                  <use data-c="6A" xlink:href="#prefig-projection-MJX-4-TEX-N-6A" transform="translate(1448,0)"/>
                </g>
                <g data-mml-node="TeXAtom" transform="translate(1787,-244.6) scale(0.707)" data-mjx-texclass="ORD">
                  <g data-mml-node="msub" data-semantic-type="subscript" data-semantic-role="latinletter" data-semantic-id="5" data-semantic-children="3,4" data-semantic-parent="6" data-semantic-attributes="texclass:ORD" data-semantic-speech="ModifyingAbove v With right arrow Sub Subscript 2" data-semantic-prefix="Subscript">
                    <g data-mml-node="TeXAtom" data-mjx-texclass="ORD">
                      <g data-mml-node="mover" data-semantic-type="overscore" data-semantic-role="latinletter" data-semantic-id="3" data-semantic-children="1,2" data-semantic-parent="5" data-semantic-attributes="texclass:ORD" data-semantic-speech="ModifyingAbove v With right arrow" data-semantic-prefix="Base">
                        <g data-mml-node="mi" data-semantic-type="identifier" data-semantic-role="latinletter" data-semantic-font="italic" data-semantic-annotation="clearspeak:simple" data-semantic-id="1" data-semantic-parent="3" data-semantic-speech="v" data-semantic-prefix="Base">
                          <use data-c="1D463" xlink:href="#prefig-projection-MJX-4-TEX-I-1D463"/>
                        </g>
                        <g data-mml-node="mo" data-semantic-type="relation" data-semantic-role="overaccent" data-semantic-annotation="accent:arrow" data-semantic-id="2" data-semantic-parent="3" data-semantic-speech="right arrow" data-semantic-prefix="Overscript" transform="translate(270.3,32) translate(-250 0)">
                          <use data-c="20D7" xlink:href="#prefig-projection-MJX-4-TEX-N-20D7"/>
                        </g>
                      </g>
                    </g>
                    <g data-mml-node="TeXAtom" transform="translate(518,-150) scale(0.707)" data-mjx-texclass="ORD">
                      <g data-mml-node="mn" data-semantic-type="number" data-semantic-role="integer" data-semantic-font="normal" data-semantic-annotation="clearspeak:simple" data-semantic-id="4" data-semantic-parent="5" data-semantic-attributes="texclass:ORD" data-semantic-speech="2" data-semantic-prefix="Subscript">
                        <use data-c="32" xlink:href="#prefig-projection-MJX-4-TEX-N-32"/>
                      </g>
                    </g>
                  </g>
                </g>
              </g>
              <g data-mml-node="mo" data-semantic-type="operator" data-semantic-role="multiplication" data-semantic-id="15" data-semantic-parent="16" data-semantic-added="true" data-semantic-operator="infixop,⁢" data-semantic-speech="times" transform="translate(2488.6,0)">
                <use data-c="2062" xlink:href="#prefig-projection-MJX-4-TEX-N-2062"/>
              </g>
              <g data-mml-node="mrow" data-semantic-type="fenced" data-semantic-role="leftright" data-semantic-id="14" data-semantic-children="12" data-semantic-content="7,13" data-semantic-parent="16" data-semantic-speech="left parenthesis ModifyingAbove v With right arrow Subscript 1 Baseline right parenthesis" transform="translate(2488.6,0)">
                <g data-mml-node="mo" data-semantic-type="fence" data-semantic-role="open" data-semantic-id="7" data-semantic-parent="14" data-semantic-operator="fenced" data-semantic-speech="left parenthesis">
                  <use data-c="28" xlink:href="#prefig-projection-MJX-4-TEX-N-28"/>
                </g>
                <g data-mml-node="msub" data-semantic-type="subscript" data-semantic-role="latinletter" data-semantic-id="12" data-semantic-children="10,11" data-semantic-parent="14" data-semantic-speech="ModifyingAbove v With right arrow Subscript 1 Baseline" transform="translate(389,0)">
                  <g data-mml-node="TeXAtom" data-mjx-texclass="ORD">
                    <g data-mml-node="mover" data-semantic-type="overscore" data-semantic-role="latinletter" data-semantic-id="10" data-semantic-children="8,9" data-semantic-parent="12" data-semantic-attributes="texclass:ORD" data-semantic-speech="ModifyingAbove v With right arrow" data-semantic-prefix="Base">
                      <g data-mml-node="mi" data-semantic-type="identifier" data-semantic-role="latinletter" data-semantic-font="italic" data-semantic-annotation="clearspeak:simple" data-semantic-id="8" data-semantic-parent="10" data-semantic-speech="v" data-semantic-prefix="Base">
                        <use data-c="1D463" xlink:href="#prefig-projection-MJX-4-TEX-I-1D463"/>
                      </g>
                      <g data-mml-node="mo" data-semantic-type="relation" data-semantic-role="overaccent" data-semantic-annotation="accent:arrow" data-semantic-id="9" data-semantic-parent="10" data-semantic-speech="right arrow" data-semantic-prefix="Overscript" transform="translate(270.3,32) translate(-250 0)">
                        <use data-c="20D7" xlink:href="#prefig-projection-MJX-4-TEX-N-20D7"/>
                      </g>
                    </g>
                  </g>
                  <g data-mml-node="TeXAtom" transform="translate(518,-150) scale(0.707)" data-mjx-texclass="ORD">
                    <g data-mml-node="mn" data-semantic-type="number" data-semantic-role="integer" data-semantic-font="normal" data-semantic-annotation="clearspeak:simple" data-semantic-id="11" data-semantic-parent="12" data-semantic-attributes="texclass:ORD" data-semantic-speech="1" data-semantic-prefix="Subscript">
                      <use data-c="31" xlink:href="#prefig-projection-MJX-4-TEX-N-31"/>
                    </g>
                  </g>
                </g>
                <g data-mml-node="mo" data-semantic-type="fence" data-semantic-role="close" data-semantic-id="13" data-semantic-parent="14" data-semantic-operator="fenced" data-semantic-speech="right parenthesis" transform="translate(1310.6,0)">
                  <use data-c="29" xlink:href="#prefig-projection-MJX-4-TEX-N-29"/>
                </g>
              </g>
            </g>
          </g>
        </svg>
      </g>
    </g>
    <path stroke="black" stroke-width="4" fill="none" marker-end="url(#prefig-projection-arrow-head-end-4_None_24_60-black)" d="M 175.0 225.0 L 299.7 256.2"/>
  </g>
  <line id="prefig-projection-__line-0" x1="325.0" y1="175.0" x2="304.4" y2="257.4" stroke="black" stroke-width="2" stroke-dasharray="4 4" fill="none"/>
  <g id="prefig-projection-__g-3">
    <g id="prefig-projection-__label-3" transform="translate(209.0,223.8) translate(0.0,-6.5)">
      <g id="prefig-projection-__g-7">
        <svg xmlns:xlink="http://www.w3.org/1999/xlink" style="vertical-align: -0.184px" width="8.488px" height="12.944px" role="img" focusable="false" viewBox="0 -705 469 715" x="0.0" y="0.0">
          <defs>
            <path id="prefig-projection-MJX-5-TEX-I-1D703" d="M35 200Q35 302 74 415T180 610T319 704Q320 704 327 704T339 705Q393 701 423 656Q462 596 462 495Q462 380 417 261T302 66T168 -10H161Q125 -10 99 10T60 63T41 130T35 200ZM383 566Q383 668 330 668Q294 668 260 623T204 521T170 421T157 371Q206 370 254 370L351 371Q352 372 359 404T375 484T383 566ZM113 132Q113 26 166 26Q181 26 198 36T239 74T287 161T335 307L340 324H145Q145 321 136 286T120 208T113 132Z"/>
          </defs>
          <g stroke="currentColor" fill="currentColor" stroke-width="0" transform="scale(1,-1)">
            <g data-mml-node="math">
              <g data-mml-node="mi" data-semantic-type="identifier" data-semantic-role="greekletter" data-semantic-font="italic" data-semantic-annotation="clearspeak:simple" data-semantic-id="0" data-semantic-speech="theta">
                <use data-c="1D703" xlink:href="#prefig-projection-MJX-5-TEX-I-1D703"/>
              </g>
            </g>
          </g>
        </svg>
      </g>
    </g>
    <path stroke="black" stroke-width="2" fill="none" d="M 203.5 215.5 L 203.5 215.7 L 203.6 215.8 L 203.6 216.0 L 203.7 216.2 L 203.7 216.3 L 203.8 216.5 L 203.8 216.6 L 203.9 216.8 L 203.9 217.0 L 204.0 217.1 L 204.0 217.3 L 204.0 217.5 L 204.1 217.6 L 204.1 217.8 L 204.2 218.0 L 204.2 218.1 L 204.2 218.3 L 204.3 218.5 L 204.3 218.6 L 204.4 218.8 L 204.4 219.0 L 204.4 219.1 L 204.5 219.3 L 204.5 219.5 L 204.5 219.6 L 204.5 219.8 L 204.6 220.0 L 204.6 220.1 L 204.6 220.3 L 204.7 220.5 L 204.7 220.6 L 204.7 220.8 L 204.7 221.0 L 204.8 221.1 L 204.8 221.3 L 204.8 221.5 L 204.8 221.6 L 204.8 221.8 L 204.8 222.0 L 204.9 222.2 L 204.9 222.3 L 204.9 222.5 L 204.9 222.7 L 204.9 222.8 L 204.9 223.0 L 204.9 223.2 L 205.0 223.3 L 205.0 223.5 L 205.0 223.7 L 205.0 223.8 L 205.0 224.0 L 205.0 224.2 L 205.0 224.4 L 205.0 224.5 L 205.0 224.7 L 205.0 224.9 L 205.0 225.0 L 205.0 225.2 L 205.0 225.4 L 205.0 225.5 L 205.0 225.7 L 205.0 225.9 L 205.0 226.1 L 205.0 226.2 L 205.0 226.4 L 205.0 226.6 L 204.9 226.7 L 204.9 226.9 L 204.9 227.1 L 204.9 227.2 L 204.9 227.4 L 204.9 227.6 L 204.9 227.8 L 204.9 227.9 L 204.8 228.1 L 204.8 228.3 L 204.8 228.4 L 204.8 228.6 L 204.8 228.8 L 204.7 228.9 L 204.7 229.1 L 204.7 229.3 L 204.7 229.4 L 204.6 229.6 L 204.6 229.8 L 204.6 229.9 L 204.6 230.1 L 204.5 230.3 L 204.5 230.4 L 204.5 230.6 L 204.4 230.8 L 204.4 230.9 L 204.4 231.1 L 204.3 231.3 L 204.3 231.4 L 204.3 231.6 L 204.2 231.8 L 204.2 231.9 L 204.1 232.1 L 204.1 232.3"/>
  </g>
  <path id="prefig-projection-__path-0" stroke="black" stroke-width="2" fill="none" d="M 320.9 261.5 L 325.0 245.0 L 308.5 240.9"/>
</svg>
